<svg id="_圖層_2" data-name="圖層 2" xmlns="http://www.w3.org/2000/svg" viewBox="0 0 244.57 130.36">
  <g id="_圖層_2-2" data-name="圖層 2">
    <path class="cls-1" d="M60.17,16.22C55.49,6.32,45.51,0,34.55,0H0S17.01,9.17,26.95,30.18l47.4,100.18h14.16l8.32-36.68L60.17,16.22Z" />
    <path class="cls-1" d="M121.76,114.14c4.69,9.91,14.66,16.22,25.62,16.22h34.55s-17.01-9.17-26.95-30.18L107.58,0h-14.16l-8.32,36.68,36.65,77.46Z"/>
    <path d="M219.13,52.52c-14.27-7.15-28.82-12.51-28.82-31.66S220.84,1.2,220.84,1.2c0,0-70.48-8.04-70.48,41.62,0,0-2.14,19.91,25.4,35.74,14.27,7.15,28.82,12.51,28.82,31.66s-30.53,19.66-30.53,19.66c0,0,70.48,8.04,70.48-41.62,0,0,2.14-19.91-25.4-35.74Zm11.22,35.74c0,9.71-3.61,16.25-11.62,20.84-.53-25.52-19.35-34.74-33.14-41.49-1.04-.51-2.08-1.02-3.12-1.54-16.72-9.74-17.91-20.13-17.98-21.99l.2-1.05-.16-.22c0-9.71,3.61-16.25,11.62-20.84,.53,25.53,19.35,34.74,33.14,41.49,1.04,.51,2.08,1.02,3.12,1.54,16.72,9.74,17.91,20.13,17.98,21.99l-.2,1.05,.16,.22Z" />
  </g>
</svg>